<?xml version="1.0" encoding="utf-8"?>
<!-- Generator: Adobe Illustrator 25.4.1, SVG Export Plug-In . SVG Version: 6.00 Build 0)  -->
<svg version="1.1" id="Layer_1" xmlns="http://www.w3.org/2000/svg" xmlns:xlink="http://www.w3.org/1999/xlink" x="0px" y="0px"
	 viewBox="0 0 350 350" style="enable-background:new 0 0 350 350;" xml:space="preserve">
<style type="text/css">
	.st0{fill:#FF501E;}
</style>
<g>
	<path class="st0" d="M224.4,219.61c-0.91,0-1.44-0.7-1.44-1.83c0-1.18,0.53-1.88,1.48-1.88c0.69,0,1.05,0.32,1.23,0.98h1.53
		c-0.13-1.38-1.27-2.2-2.8-2.2c-1.83,0-3.01,1.19-3.01,3.11c0,1.9,1.14,3.06,2.99,3.06c1.48,0,2.47-0.69,2.84-2.29h-1.55
		C225.47,219.31,225.08,219.61,224.4,219.61z"/>
	<path class="st0" d="M224.31,212.44c-3.16,0-5.27,2.56-5.27,5.32s2.11,5.32,5.27,5.32c3.16,0,5.27-2.55,5.27-5.32
		S227.47,212.44,224.31,212.44z M224.31,222.23c-2.6,0-4.23-2.16-4.23-4.47c0-2.31,1.63-4.47,4.23-4.47c2.6,0,4.22,2.16,4.22,4.47
		C228.53,220.07,226.91,222.23,224.31,222.23z"/>
	<path class="st0" d="M255.34,200.6l-2.88-18.54l-43.51,6.76L198.4,71.21l-18.69,1.67l3.21,35.78l-10.17-3.49l-32.4,94.32
		l-45.68,7.1l2.88,18.54l35.91-5.58l-8.35,24.3l17.75,6.1l11.56-33.66l37.62-5.85l6.12,68.35l18.69-1.67l-6.23-69.57L255.34,200.6z
		 M161.31,196.22l23.36-68.01l5.69,63.49L161.31,196.22z"/>
</g>
</svg>
