<svg width="175" height="115" viewBox="0 0 175 115" fill="none" xmlns="http://www.w3.org/2000/svg">
<path d="M35.8977 14.1066V1.73497C35.8977 1.27978 36.2601 0.917969 36.716 0.917969H121.372C122.015 0.917969 122.412 1.62992 122.062 2.17848L50.8273 113.757C50.6753 113.99 50.4181 114.13 50.1375 114.13H29.865C28.1932 114.13 26.5096 113.979 24.8846 113.605C-3.6419 107.069 -9.05492 68.8921 16.4903 54.6997L21.8566 51.7235C25.3288 49.7977 29.2454 48.7823 33.2204 48.7823H57.3096C57.9643 48.7823 58.3619 49.5176 57.9877 50.0545L39.8259 78.1009C33.5711 87.2512 43.1228 99.2494 53.2941 94.8143C59.0813 92.2816 62.7874 86.586 62.7874 80.3301V26.595C62.7874 20.1524 57.5497 14.9236 51.0962 14.9236H36.716C36.2601 14.9236 35.8977 14.5618 35.8977 14.1066Z" fill="#2E293D"/>
<path d="M111.891 35.5003L111.33 78.2409C111.061 98.1406 94.8333 114.13 74.8998 114.13H56.1472C55.4106 114.13 54.9664 113.313 55.3639 112.695L126.446 1.34981C126.622 1.08137 126.914 0.917969 127.23 0.917969H146.064C148.718 0.917969 151.372 1.3148 153.85 2.24851C179.208 11.7724 182.856 47.7086 157.966 61.5392L154.727 63.3366C151.255 65.2623 147.338 66.2777 143.363 66.2777H119.046C118.297 66.2777 117.853 65.4374 118.274 64.8188L136.547 38.068C143.223 28.299 133.098 15.5072 122.202 20.1291C116.006 22.7668 111.973 28.8009 111.879 35.4886L111.891 35.5003Z" fill="#2E293D"/>
</svg>
